# xmcd
#
# Track frame offsets:
#	150
#	10156
#	21214
#	31391
#	41925
#	54241
#	63717
#	72603
#	81477
#	94923
#	105568
#
# Disc length: 1492 seconds
#
# Revision: 0
# Processed by: cddbd v1.4PL0 Copyright (c) Steve Scherf et al.
# Submitted via: audiograbber 1.81.03
#
DISCID=9805d20b
DTITLE=Merle Travis - Strictly Guitar
DYEAR=1967
DGENRE=Thumbpicking
TTITLE0=Heart of My Heart
TTITLE1=Lazy River
TTITLE2=Guitar Rag
TTITLE3=Dance of the Goldenrod
TTITLE4=Cuddle Up a Little Closer
TTITLE5=Cannonball Rag
TTITLE6=Ma, He's Making Eyes at Me
TTITLE7=I'll See You in My Dreams
TTITLE8=Gotta Have My Baby Back
TTITLE9=Way Down Yonder in New Orleans
TTITLE10=Fisher's Hornpipe
EXTD=
EXTT0=
EXTT1=
EXTT2=
EXTT3=
EXTT4=
EXTT5=
EXTT6=
EXTT7=
EXTT8=
EXTT9=
EXTT10=
PLAYORDER=
